<?xml version="1.0" standalone="no"?>
<!DOCTYPE svg PUBLIC "-//W3C//DTD SVG 20010904//EN"
 "http://www.w3.org/TR/2001/REC-SVG-20010904/DTD/svg10.dtd">
<svg version="1.0" xmlns="http://www.w3.org/2000/svg"
 width="512.000000pt" height="512.000000pt" viewBox="0 0 512.000000 512.000000"
 preserveAspectRatio="xMidYMid meet">
<metadata>
Created by potrace 1.11, written by Peter Selinger 2001-2013
</metadata>
<g transform="translate(0.000000,512.000000) scale(0.100000,-0.100000)"
fill="#000000" stroke="none">
<path d="M2930 5000 l0 -120 -125 0 -125 0 0 -125 0 -125 -850 0 -850 0 0
-120 0 -120 -125 0 -125 0 0 -855 0 -855 -120 0 -120 0 0 -485 0 -485 120 0
120 0 0 -125 0 -125 125 0 125 0 0 -240 0 -240 120 0 120 0 0 -125 0 -125 245
0 245 0 0 -365 0 -365 120 0 120 0 0 245 0 245 610 0 610 0 0 -245 0 -245 245
0 245 0 0 120 0 120 -125 0 -125 0 0 125 0 125 125 0 125 0 0 120 0 120 120 0
120 0 0 125 0 125 120 0 120 0 0 120 0 120 125 0 125 0 0 365 0 365 120 0 120
0 0 365 0 365 -120 0 -120 0 0 245 0 245 -125 0 -125 0 0 120 0 120 -120 0
-120 0 0 245 0 245 120 0 120 0 0 245 0 245 -120 0 -120 0 0 120 0 120 -365 0
-365 0 0 245 0 245 -120 0 -120 0 0 -120z"/>
</g>
</svg>
